<?xml version="1.0" encoding="UTF-8"?>
<svg id="Capa_1" data-name="Capa 1" xmlns="http://www.w3.org/2000/svg" xmlns:xlink="http://www.w3.org/1999/xlink" viewBox="0 0 339 338">
  <defs>
    <style>
      .cls-1 {
        filter: url(#drop-shadow-2);
      }

      .cls-1, .cls-2 {
        fill: #c09f77;
      }

      .cls-1, .cls-2, .cls-3 {
        stroke-width: 0px;
      }

      .cls-2 {
        filter: url(#drop-shadow-1);
      }

      .cls-3 {
        fill: #152f4a;
        filter: url(#drop-shadow-3);
      }
    </style>
    <filter id="drop-shadow-1" filterUnits="userSpaceOnUse">
      <feOffset dx="1" dy="1"/>
      <feGaussianBlur result="blur" stdDeviation="1"/>
      <feFlood flood-color="#d8d8d8" flood-opacity=".75"/>
      <feComposite in2="blur" operator="in"/>
      <feComposite in="SourceGraphic"/>
    </filter>
    <filter id="drop-shadow-2" filterUnits="userSpaceOnUse">
      <feOffset dx="1" dy="1"/>
      <feGaussianBlur result="blur-2" stdDeviation="1"/>
      <feFlood flood-color="#d8d8d8" flood-opacity=".75"/>
      <feComposite in2="blur-2" operator="in"/>
      <feComposite in="SourceGraphic"/>
    </filter>
    <filter id="drop-shadow-3" filterUnits="userSpaceOnUse">
      <feOffset dx="1" dy="1"/>
      <feGaussianBlur result="blur-3" stdDeviation="1"/>
      <feFlood flood-color="#d8d8d8" flood-opacity=".75"/>
      <feComposite in2="blur-3" operator="in"/>
      <feComposite in="SourceGraphic"/>
    </filter>
  </defs>
  <path class="cls-2" d="m168.23,264.77c-9.02-.3-16.06-7.78-15.7-16.69.36-8.81,7.81-15.74,16.62-15.45,9.02.3,16.06,7.78,15.7,16.69-.36,8.81-7.81,15.74-16.62,15.45Z"/>
  <path class="cls-1" d="m178.39,188.99c0,7.09.1,14.09-.03,21.09-.11,5.78-3.73,10.45-9.04,12.11-5.11,1.59-10.9.07-13.87-4.34-1.55-2.29-2.73-5.29-2.81-8.01-.32-10.66-.21-21.34-.11-32,.07-7.18,4.63-12.38,11.8-12.98,8.54-.71,16.1-3.18,21.44-10.25,6.33-8.4,7.5-17.61,2.87-27.04-4.87-9.9-13.21-14.96-24.32-14.45-14.09.64-23.69,10.7-24.76,25.35-.58,7.98-5.81,13.22-13.11,13.14-7.45-.08-12.89-5.92-12.8-13.74.26-22.68,16.16-43.11,38.15-49,34.56-9.26,68,18.21,65.39,53.72-1.51,20.5-15.48,38.5-35.01,45.1-1.22.41-2.42.84-3.78,1.31Z"/>
  <path class="cls-3" d="m334.58,158.25v19.4c-.19.93-.48,1.85-.55,2.79-1.62,23.1-7.72,44.99-18.91,65.23-25.8,46.66-65,75.2-117.52,85.25-6.33,1.21-12.79,1.76-19.18,2.61h-19.44c-.83-.18-1.66-.47-2.5-.53-23.26-1.57-45.3-7.68-65.67-18.91C44.05,288.34,15.46,249.2,5.41,196.77c-1.21-6.31-1.76-12.74-2.61-19.12,0-6.47,0-12.94,0-19.4.19-.93.48-1.85.55-2.79,1.62-23.11,7.6-45.08,18.95-65.24C52.84,35.94,99.47,6.46,161.73,2.63c29.92-1.84,58.47,4.73,84.78,19.16,46.81,25.68,75.39,64.89,85.45,117.33,1.21,6.31,1.76,12.75,2.61,19.12Zm-25.92,9.55c-.13-77.1-62.76-139.55-139.95-139.56-77.29-.01-140.11,62.75-139.98,139.86.13,77.1,62.75,139.55,139.95,139.56,77.29.01,140.11-62.75,139.98-139.86Z"/>
</svg>